<svg width="76" height="75" viewBox="0 0 76 75" fill="none" xmlns="http://www.w3.org/2000/svg">
<g clip-path="url(#clip0_2403_147)">
<path d="M74.036 27.6563C72.5477 25.9688 70.3627 25 68.0826 25H66.3093C64.726 10.875 52.566 0 37.9993 0C23.4327 0 11.2726 10.875 9.68932 25H7.91598C5.63598 25 3.45098 25.9688 1.96265 27.6563C0.474317 29.3438 -0.22235 31.5938 0.0626502 33.8438L3.60932 60.0938C4.74932 68.5938 12.191 75 20.8677 75H55.0993C63.8077 75 71.2177 68.5938 72.3577 60.0938L75.9043 33.8438C76.1893 31.625 75.5243 29.3438 74.0043 27.6563H74.036ZM37.9993 3.125C50.8243 3.125 61.5593 12.5938 63.1427 25H12.856C14.4077 12.5938 25.1427 3.125 37.9993 3.125ZM72.801 33.4375L69.2543 59.6875C68.3043 66.6562 62.256 71.9062 55.131 71.9062H20.8677C13.7427 71.9062 7.69432 66.6562 6.74432 59.6875L3.19765 33.4375C3.00765 32.0938 3.41932 30.75 4.33765 29.7188C5.25598 28.6875 6.55432 28.125 7.91598 28.125H68.0826C69.4443 28.125 70.7427 28.7188 71.661 29.7188C72.5793 30.7188 72.991 32.0938 72.801 33.4375Z" fill="black"/>
</g>
<defs>
<clipPath id="clip0_2403_147">
<rect width="76" height="75" fill="white"/>
</clipPath>
</defs>
</svg>
